<?xml version="1.0" encoding="utf-8"?>
<!-- Svg Vector Icons : http://www.onlinewebfonts.com/icon -->
<!DOCTYPE svg PUBLIC "-//W3C//DTD SVG 1.1//EN" "http://www.w3.org/Graphics/SVG/1.1/DTD/svg11.dtd">
<svg version="1.1" xmlns="http://www.w3.org/2000/svg" xmlns:xlink="http://www.w3.org/1999/xlink" x="0px" y="0px" viewBox="0 0 256 256" enable-background="new 0 0 256 256" xml:space="preserve">
<metadata> Svg Vector Icons : http://www.onlinewebfonts.com/icon </metadata>
<g><g><path fill="#000000" d="M205,196.8V92.1c0-10.1-15.6-20.5-25.6-20.5H71.6V59.2c9.1-3.9,15.4-13,15.4-23.5C87,21.5,75.5,10,61.3,10c-14.2,0-25.6,11.5-25.6,25.6c0,10.5,6.3,19.6,15.4,23.5v99.6c0,10.1,15.6,15.4,25.6,15.4h107.7v22.7c-9.1,3.9-15.4,13-15.4,23.5c0,14.2,11.5,25.6,25.6,25.6s25.6-11.5,25.6-25.6C220.4,209.8,214,200.8,205,196.8z M61.3,48.5c-7.1,0-12.8-5.7-12.8-12.8c0-7.1,5.7-12.8,12.8-12.8c7.1,0,12.8,5.7,12.8,12.8C74.1,42.7,68.4,48.5,61.3,48.5z M76.7,153.6c-5,0-5.1-5.2-5.1-10.3V92.1h102.6c5,0,10.3,5.2,10.3,10.3v51.3H76.7z M194.7,233.2c-7.1,0-12.8-5.7-12.8-12.8c0-7.1,5.7-12.8,12.8-12.8c7.1,0,12.8,5.7,12.8,12.8C207.5,227.4,201.8,233.2,194.7,233.2z"/></g></g>
</svg>